<svg xmlns="http://www.w3.org/2000/svg" viewBox="0 0 530 40">
  <path fill="#7fb92f" d="M0 0l20 20L0 40z"/>
  <path fill="#427b27" d="M20 20l20 20H0z"/>
  <path fill="#44a8b7" d="M20 20L40 0v40z"/>
  <path fill="#383632" d="M60.319 39.893V.133h2.65L80.2 19.749 97.453.134h2.65v39.759h-7.952l-.026-23.06-11.928 13.252L68.27 16.833v23.06h-7.952zm47.604 0V.16l29.21-.026v7.422h-21.258v8.481h15.93v7.396h-15.93v9.038h21.205v7.422h-29.157zm45.167-23.856h11.132q4.797-.08 4.93-4.373-.133-3.923-4.85-4.082h-11.213v8.455zm15.982 6.52l9.914 17.336h-9.118l-9.516-16.434h-7.263v16.434h-7.951V.133h17.334q13.916 0 13.916 11.451 0 8.615-7.316 10.974zM200.8 39.893q-8.429-.027-14.154-5.7-5.699-5.698-5.699-14.26.027-8.375 5.725-14.074Q192.371.134 200.8.134q8.508 0 14.605 5.301l-5.302 5.805q-4.055-3.18-9.303-3.18-5.354.026-8.641 3.339-3.26 3.313-3.26 8.482.026 5.54 3.313 8.8 3.287 3.26 8.64 3.26 4.295 0 6.6-1.696v-6.812l-5.3.026v-7.422h13.253v18.554q-6.07 5.302-14.605 5.302zm20.489 0L237.192.133h7.952l15.877 39.733-8.455.027-2.386-6.097h-18.024l-2.385 6.097h-8.482zm20.091-29.157l-6.043 15.109h11.928l-5.885-15.109zm33.53 21.231V8.086h7.369q10.576 0 10.602 11.927-.026 11.928-10.602 11.954h-7.369zm7.369 7.926q18.554 0 18.554-19.88 0-19.906-18.554-19.906h-15.32v39.786h15.32zm44.954 0q-8.482 0-14.18-5.7-5.7-5.724-5.7-14.18 0-8.482 5.7-14.18 5.698-5.7 14.18-5.7t14.18 5.7q5.7 5.698 5.7 14.18t-5.7 14.18q-5.698 5.7-14.18 5.7zm.026-7.422q5.275 0 8.588-3.578 3.313-3.579 3.313-8.88 0-5.3-3.313-8.88-3.313-3.577-8.64-3.577-5.275 0-8.589 3.578-3.313 3.578-3.313 8.88 0 5.3 3.313 8.879 3.314 3.578 8.641 3.578z" />
  <path fill="#009ba9" d="M379.555 31.967V8.086h7.369q10.576 0 10.602 11.927-.026 11.928-10.602 11.954h-7.369zm7.369 7.926q18.554 0 18.554-19.88 0-19.906-18.554-19.906h-15.32v39.786h15.32zm44.954 0q-8.482 0-14.18-5.7-5.7-5.724-5.7-14.18 0-8.482 5.7-14.18 5.698-5.7 14.18-5.7t14.18 5.7q5.7 5.698 5.7 14.18t-5.7 14.18q-5.698 5.7-14.18 5.7zm.026-7.422q5.275 0 8.588-3.578 3.314-3.579 3.314-8.88 0-5.3-3.314-8.88-3.313-3.577-8.64-3.577-5.275 0-8.589 3.578-3.313 3.578-3.313 8.88 0 5.3 3.313 8.879 3.314 3.578 8.641 3.578zm43.682 7.422q-8.429-.027-14.154-5.7-5.699-5.698-5.699-14.26.027-8.375 5.725-14.074 5.7-5.725 14.128-5.725 8.508 0 14.605 5.301l-5.301 5.805q-4.056-3.18-9.304-3.18-5.354.026-8.64 3.339-3.261 3.313-3.261 8.482.026 5.54 3.313 8.8 3.287 3.26 8.641 3.26t9.25-3.154l5.302 5.804q-6.07 5.302-14.605 5.302zM511.66.134q5.54 0 8.588 1.325 3.049 1.325 5.7 3.976l-5.302 5.301q-2.65-3.18-7.422-3.18-4.77 0-6.096 2.252-1.325 2.253 0 3.844 1.325 1.59 6.096 2.385 5.036.53 9.145 3.314 4.108 2.783 4.108 8.88 0 4.77-4.4 8.216-4.373 3.446-10.204 3.446-5.54 0-9.251-1.59-3.71-1.591-6.361-4.242l5.3-5.3q2.651 3.18 9.013 3.71 5.3 0 6.6-2.253 1.325-2.253 0-4.506-1.3-2.253-6.6-2.783-4.771-.53-8.747-2.916-3.976-2.385-3.976-8.217 0-5.274 4.506-8.455 4.532-3.207 9.304-3.207z" />
</svg>
